<svg version="1.2" xmlns="http://www.w3.org/2000/svg" viewBox="0 0 992 895" width="25" height="25">
	<title>minus</title>
	<style>
		.s0 { fill: none } 
		.s1 { fill: #2baabd } 
	</style>
	<g id="Layer 1">
		<path id="&lt;Path&gt;" class="s0" d="m1000 1443h-2000v-2000h2000z" />
		<g id="&lt;Group&gt;">
			<path id="&lt;Compound Path&gt;" fill-rule="evenodd" class="s1" d="m918.1 443c0 56.8-11.1 111.8-33.1 163.7c-21.1 50.1-51.4 95-90.1 133.6c-38.6 38.6-83.5 68.9-133.6 90.1c-51.9 21.9-106.9 33.1-163.7 33.1c-56.7 0-111.8-11.2-163.7-33.1c-50-21.2-95-51.5-133.6-90.1c-38.6-38.6-68.9-83.5-90.1-133.6c-21.9-51.9-33.1-106.9-33.1-163.7c0-56.8 11.2-111.8 33.1-163.7c21.2-50.1 51.5-95 90.1-133.6c38.6-38.6 83.6-68.9 133.6-90.1c51.9-22 107-33.1 163.7-33.1c56.8 0 111.8 11.1 163.7 33.1c50.1 21.2 95 51.5 133.6 90.1c38.7 38.6 69 83.5 90.1 133.6c22 51.9 33.1 106.9 33.1 163.7zm-176.3 0c0-16.1-13.2-29.2-29.2-29.2h-429.9c-8.1 0-15.4 3.3-20.7 8.6c-5.3 5.3-8.5 12.6-8.5 20.6c0 16.1 13.1 29.2 29.2 29.2h429.9c8 0 15.3-3.3 20.6-8.6c5.3-5.3 8.6-12.6 8.6-20.6z" />
			<path id="&lt;Compound Path&gt;" fill-rule="evenodd" class="s1" d="m-77.1 443c0 56.8-11.2 111.8-33.1 163.7c-21.2 50.1-51.5 95-90.1 133.6c-38.6 38.6-83.6 68.9-133.6 90.1c-51.9 21.9-107 33.1-163.7 33.1c-56.8 0-111.8-11.2-163.7-33.1c-50.1-21.2-95-51.5-133.6-90.1c-38.6-38.6-69-83.5-90.1-133.6c-22-51.9-33.1-106.9-33.1-163.7c0-56.8 11.1-111.8 33.1-163.7c21.1-50.1 51.4-95 90.1-133.6c38.6-38.6 83.5-68.9 133.6-90.1c51.9-22 106.9-33.1 163.7-33.1c56.7 0 111.8 11.1 163.7 33.1c50 21.2 95 51.5 133.6 90.1c38.6 38.6 68.9 83.5 90.1 133.6c21.9 51.9 33.1 106.9 33.1 163.7zm-176.4 0c0-16.1-13.1-29.2-29.2-29.2h-185.7v-185.8c0-16-13.2-29.2-29.2-29.2c-8 0-15.3 3.3-20.6 8.6c-5.3 5.3-8.6 12.6-8.6 20.6v185.8h-185.8c-8 0-15.3 3.3-20.6 8.6c-5.3 5.3-8.6 12.6-8.6 20.6c0 16.1 13.2 29.2 29.2 29.2h185.8v185.8c0 16 13.1 29.2 29.2 29.2c8 0 15.3-3.3 20.6-8.6c5.3-5.3 8.6-12.6 8.6-20.6v-185.8h185.7c8.1 0 15.4-3.3 20.7-8.6c5.3-5.3 8.5-12.6 8.5-20.6z" />
		</g>
	</g>
</svg>